:FULLY-SPECIFIED
:FORCE-ALL-JOINTS-BE-3DOF
:DEGREES
211
root 8.33555 16.4308 -7.84609 8.47188 -0.328864 -6.28473
lfemur -44.8231 -0.352211 -10.8311
ltibia 25.9264 0 0
lfoot -16.9476 15.4439 0
ltoes -18.1521 0 0
rfemur 9.14006 6.34912 31.9439
rtibia 2.2621 0 0
rfoot -15.8418 6.10044 0
rtoes -10.6147 0 0
lowerback -7.54145 2.65061 3.61487
upperback -0.995107 3.08566 3.87735
thorax 3.1704 1.56082 2.31379
lowerneck -14.401 -6.35583 -15.0262
upperneck 13.7749 -8.14899 15.5757
head 7.90852 -3.38682 6.78354
lclavicle -2.01797e-14 -1.64827e-14 0
lhumerus -51.4144 -10.2285 96.6095
lradius 27.0064 0 0
lwrist 8.59512 0 0
lhand -15.0717 -30.6056 0
lfingers 7.12502 0 0
lthumb 11.0962 -0.909283 0
rclavicle -2.01797e-14 -1.64827e-14 0
rhumerus -37.8735 13.0966 -83.1468
rradius 53.3663 0 0
rwrist -26.1492 0 0
rhand -31.9869 -28.4842 0
rfingers 7.12502 0 0
rthumb -5.23611 -58.3997 0
212
root 8.35253 16.421 -7.69972 8.51938 -0.550449 -6.39175
lfemur -44.9472 -0.563207 -10.5504
ltibia 24.8009 0 0
lfoot -16.8165 15.4675 0
ltoes -18.4908 0 0
rfemur 9.95543 6.37114 31.983
rtibia 1.58273 0 0
rfoot -15.4318 6.24679 0
rtoes -10.5534 0 0
lowerback -7.66599 2.66856 3.6842
upperback -0.971653 3.09777 3.88918
thorax 3.26768 1.567 2.2943
lowerneck -14.5155 -6.32719 -14.9773
upperneck 13.8459 -8.10241 15.5253
head 7.93988 -3.36125 6.7641
lclavicle -1.9951e-14 -1.61432e-14 0
lhumerus -51.3886 -10.0958 96.522
lradius 26.6782 0 0
lwrist 8.04321 0 0
lhand -14.9368 -30.7905 0
lfingers 7.12502 0 0
lthumb 11.2262 -1.10299 0
rclavicle -1.9951e-14 -1.61432e-14 0
rhumerus -37.9334 13.2239 -83.4003
rradius 53.4852 0 0
rwrist -26.2569 0 0
rhand -31.9195 -28.5536 0
rfingers 7.12502 0 0
rthumb -5.17099 -58.4707 0
213
root 8.37016 16.4119 -7.55234 8.5653 -0.767765 -6.48336
lfemur -45.0632 -0.743443 -10.3128
ltibia 23.7814 0 0
lfoot -16.6852 15.474 0
ltoes -18.7658 0 0
rfemur 10.7137 6.38181 31.998
rtibia 1.0079 0 0
rfoot -15.0058 6.37988 0
rtoes -10.5055 0 0
lowerback -7.77886 2.68486 3.74135
upperback -0.953224 3.10929 3.89642
thorax 3.35281 1.57289 2.27613
lowerneck -14.6294 -6.29954 -14.9295
upperneck 13.9188 -8.05759 15.4762
head 7.97226 -3.33652 6.7452
lclavicle -1.96596e-14 -1.57604e-14 0
lhumerus -51.3542 -9.96585 96.4283
lradius 26.3627 0 0
lwrist 7.51022 0 0
lhand -14.8031 -30.952 0
lfingers 7.12502 0 0
lthumb 11.355 -1.27317 0
rclavicle -1.96596e-14 -1.57604e-14 0
rhumerus -38.0044 13.3371 -83.6438
rradius 53.5769 0 0
rwrist -26.3568 0 0
rhand -31.8537 -28.6157 0
rfingers 7.12502 0 0
rthumb -5.10748 -58.5342 0
214
root 8.38843 16.4036 -7.40393 8.60943 -0.980371 -6.55836
lfemur -45.1727 -0.890289 -10.1224
ltibia 22.8789 0 0
lfoot -16.5553 15.4624 0
ltoes -18.9713 0 0
rfemur 11.4104 6.38041 31.9871
rtibia 0.546117 0 0
rfoot -14.5641 6.49864 0
rtoes -10.4722 0 0
lowerback -7.87887 2.6996 3.78541
upperback -0.940254 3.12051 3.8987
thorax 3.42459 1.57863 2.25938
lowerneck -14.7421 -6.27304 -14.883
upperneck 13.9934 -8.0148 15.4287
head 8.00558 -3.31276 6.72694
lclavicle -1.93051e-14 -1.53322e-14 0
lhumerus -51.3113 -9.83977 96.3284
lradius 26.062 0 0
lwrist 7.00019 0 0
lhand -14.6717 -31.0882 0
lfingers 7.12502 0 0
lthumb 11.4817 -1.41795 0
rclavicle -1.93051e-14 -1.53322e-14 0
rhumerus -38.0866 13.4352 -83.8759
rradius 53.6401 0 0
rwrist -26.4483 0 0
rhand -31.79 -28.6697 0
rfingers 7.12502 0 0
rthumb -5.04599 -58.5897 0
215
root 8.40735 16.3962 -7.25446 8.65156 -1.18782 -6.61554
lfemur -45.2774 -1.00111 -9.98332
ltibia 22.1044 0 0
lfoot -16.4285 15.4319 0
ltoes -19.1014 0 0
rfemur 12.0408 6.36621 31.949
rtibia 0.205915 0 0
rfoot -14.1067 6.60196 0
rtoes -10.4547 0 0
lowerback -7.96484 2.71292 3.81545
upperback -0.933173 3.1317 3.89565
thorax 3.48186 1.58437 2.24411
lowerneck -14.8529 -6.24783 -14.8381
upperneck 14.0695 -7.97435 15.3831
head 8.03974 -3.29015 6.70946
lclavicle -1.88868e-14 -1.48563e-14 0
lhumerus -51.2599 -9.71863 96.2224
lradius 25.7787 0 0
lwrist 6.51717 0 0
lhand -14.5436 -31.1974 0
lfingers 7.12502 0 0
lthumb 11.6052 -1.53545 0
rclavicle -1.88868e-14 -1.48563e-14 0
rhumerus -38.1804 13.5171 -84.0952
rradius 53.6736 0 0
rwrist -26.5309 0 0
rhand -31.7289 -28.715 0
rfingers 7.12502 0 0
rthumb -4.98696 -58.6364 0
216
root 8.42692 16.3898 -7.1039 8.69149 -1.38968 -6.6537
lfemur -45.379 -1.07328 -9.89972
ltibia 21.4688 0 0
lfoot -16.3065 15.3815 0
ltoes -19.15 0 0
rfemur 12.6004 6.33851 31.8822
rtibia -0.00418644 0 0
rfoot -13.6338 6.68876 0
rtoes -10.454 0 0
lowerback -8.03559 2.7249 3.83055
upperback -0.932415 3.14315 3.88688
thorax 3.52346 1.59024 2.23041
lowerneck -14.9611 -6.22407 -14.7951
upperneck 14.1469 -7.93652 15.3398
head 8.07465 -3.26883 6.69288
lclavicle -1.84043e-14 -1.43304e-14 0
lhumerus -51.2 -9.6035 96.1105
lradius 25.5151 0 0
lwrist 6.0652 0 0
lhand -14.4198 -31.2777 0
lfingers 7.12502 0 0
lthumb 11.7244 -1.62378 0
rclavicle -1.84043e-14 -1.43304e-14 0
rhumerus -38.2859 13.5815 -84.3003
rradius 53.676 0 0
rwrist -26.6043 0 0
rhand -31.6707 -28.7509 0
rfingers 7.12502 0 0
rthumb -4.93083 -58.6736 0
217
root 8.44714 16.3844 -6.95222 8.729 -1.58551 -6.67162
lfemur -45.4791 -1.10415 -9.87569
ltibia 20.983 0 0
lfoot -16.191 15.3103 0
ltoes -19.1115 0 0
rfemur 13.0845 6.29658 31.7851
rtibia -0.0756657 0 0
rfoot -13.1457 6.75793 0
rtoes -10.4715 0 0
lowerback -8.08994 2.73566 3.82981
upperback -0.938411 3.15514 3.87203
thorax 3.5482 1.59638 2.21834
lowerneck -15.0661 -6.20191 -14.7542
upperneck 14.2255 -7.90162 15.2991
head 8.11022 -3.24896 6.67732
lclavicle -1.78571e-14 -1.37523e-14 0
lhumerus -51.1317 -9.49545 95.9926
lradius 25.2735 0 0
lwrist 5.64833 0 0
lhand -14.3015 -31.3273 0
lfingers 7.12502 0 0
lthumb 11.8385 -1.68106 0
rclavicle -1.78571e-14 -1.37523e-14 0
rhumerus -38.4034 13.6275 -84.4897
rradius 53.646 0 0
rwrist -26.6679 0 0
rhand -31.616 -28.7766 0
rfingers 7.12502 0 0
rthumb -4.87801 -58.7005 0
218
root 8.46802 16.3802 -6.79939 8.7639 -1.77485 -6.66812
lfemur -45.5793 -1.09111 -9.91535
ltibia 20.6582 0 0
lfoot -16.0837 15.2174 0
ltoes -18.9797 0 0
rfemur 13.4885 6.2397 31.6562
rtibia 3.49861e-14 0 0
rfoot -12.6425 6.8084 0
rtoes -10.5082 0 0
lowerback -8.12669 2.7453 3.8123
upperback -0.951594 3.16795 3.85071
thorax 3.55491 1.60295 2.208
lowerneck -15.1673 -6.1815 -14.7156
upperneck 14.3051 -7.86992 15.2612
head 8.14636 -3.2307 6.66291
lclavicle -1.72446e-14 -1.31198e-14 0
lhumerus -51.0549 -9.39555 95.8689
lradius 25.0564 0 0
lwrist 5.2706 0 0
lhand -14.1896 -31.3445 0
lfingers 7.12502 0 0
lthumb 11.9463 -1.70541 0
rclavicle -1.72446e-14 -1.31198e-14 0
rhumerus -38.5333 13.6538 -84.6621
rradius 53.5823 0 0
rwrist -26.7213 0 0
rhand -31.5652 -28.7916 0
rfingers 7.12502 0 0
rthumb -4.82894 -58.7166 0
219
root 8.49004 16.3767 -6.64451 8.79915 -1.96305 -6.64251
lfemur -45.6769 -1.02905 -10.0182
ltibia 20.4917 0 0
lfoot -15.9654 15.0956 0
ltoes -18.7476 0 0
rfemur 13.8299 6.165 31.4873
rtibia 0.226256 0 0
rfoot -12.0873 6.84753 0
rtoes -10.5658 0 0
lowerback -8.14711 2.75416 3.77665
upperback -0.974026 3.18214 3.82177
thorax 3.54212 1.61025 2.19897
lowerneck -15.2694 -6.16316 -14.6788
upperneck 14.3876 -7.84148 15.2255
head 8.1844 -3.21384 6.64925
lclavicle -1.64803e-14 -1.24041e-14 0
lhumerus -50.9756 -9.29156 95.7334
lradius 24.8494 0 0
lwrist 4.90713 0 0
lhand -14.0731 -31.3255 0
lfingers 7.12502 0 0
lthumb 12.0586 -1.69397 0
rclavicle -1.64803e-14 -1.24041e-14 0
rhumerus -38.6845 13.66 -84.826
rradius 53.4731 0 0
rwrist -26.7643 0 0
rhand -31.5159 -28.7984 0
rfingers 7.12502 0 0
rthumb -4.7813 -58.7244 0
220
root 8.51361 16.3735 -6.48684 8.8376 -2.15527 -6.59573
lfemur -45.7673 -0.91682 -10.1785
ltibia 20.4677 0 0
lfoot -15.8175 14.9399 0
ltoes -18.4161 0 0
rfemur 14.1294 6.07087 31.2732
rtibia 0.595484 0 0
rfoot -11.4481 6.88308 0
rtoes -10.6443 0 0
lowerback -8.15377 2.7624 3.72281
upperback -1.00696 3.19785 3.78467
thorax 3.51 1.61837 2.19079
lowerneck -15.3773 -6.147 -14.6428
upperneck 14.4748 -7.81597 15.191
head 8.22561 -3.19802 6.63585
lclavicle -1.549e-14 -1.15832e-14 0
lhumerus -50.8989 -9.17154 95.5808
lradius 24.6372 0 0
lwrist 4.53133 0 0
lhand -13.941 -31.2695 0
lfingers 7.12502 0 0
lthumb 12.1859 -1.64659 0
rclavicle -1.549e-14 -1.15832e-14 0
rhumerus -38.8646 13.647 -84.9906
rradius 53.3097 0 0
rwrist -26.7976 0 0
rhand -31.4654 -28.8001 0
rfingers 7.12502 0 0
rthumb -4.73255 -58.7272 0
